<svg width="20" height="20" viewBox="0 0 20 20" fill="none" xmlns="http://www.w3.org/2000/svg">
<path fill-rule="evenodd" clip-rule="evenodd" d="M20 1.00001C20 0.706055 19.8707 0.426991 19.6464 0.236988C19.4221 0.0469841 19.1256 -0.0347118 18.8356 0.0136136L6.8356 2.01361C6.35341 2.09398 6 2.51117 6 3.00001V14H3C1.34315 14 0 15.3432 0 17C0 18.6569 1.34315 20 3 20H5C6.65685 20 8 18.6569 8 17V15V3.84713L18 2.18047V12H15C13.3431 12 12 13.3432 12 15C12 16.6569 13.3431 18 15 18H17C18.6569 18 20 16.6569 20 15V13V1.00001ZM14 15C14 14.4477 14.4477 14 15 14H18V15C18 15.5523 17.5523 16 17 16H15C14.4477 16 14 15.5523 14 15ZM2 17C2 16.4477 2.44772 16 3 16H6V17C6 17.5523 5.55228 18 5 18H3C2.44772 18 2 17.5523 2 17Z" fill="white" fill-opacity="0.48"/>
</svg>
