<svg width="25" height="25" xmlns="http://www.w3.org/2000/svg">
 <g class="layer">
  <title>Layer 1</title>
  <ellipse stroke="#7c4918" ry="10.66667" rx="10.97917" id="svg_2" fill="#ffffff" cy="12.5" cx="12.60417"/>
  <path stroke="null" id="svg_1" fill-rule="evenodd" fill="#7c4918" d="m17.08333,8.00002c0,-0.145 -0.06771,-0.285 -0.18229,-0.38c-0.11979,-0.095 -0.27083,-0.135 -0.42188,-0.115l-6.25,1c-0.25521,0.04 -0.4375,0.25 -0.4375,0.495l0,5.5l-1.5625,0c-0.86458,0 -1.5625,0.67 -1.5625,1.5c0,0.83 0.69792,1.5 1.5625,1.5l1.04167,0c0.86458,0 1.5625,-0.67 1.5625,-1.5l0,-1l0,-5.575l5.20833,-0.835l0,4.91l-1.5625,0c-0.86458,0 -1.5625,0.67 -1.5625,1.5c0,0.83 0.69792,1.5 1.5625,1.5l1.04167,0c0.86458,0 1.5625,-0.67 1.5625,-1.5l0,-1l0,-6zm-3.125,7.00001c0,-0.275 0.23438,-0.5 0.52083,-0.5l1.5625,0l0,0.5c0,0.275 -0.23438,0.5 -0.52083,0.5l-1.04167,0c-0.28646,0 -0.52083,-0.225 -0.52083,-0.5zm-6.25,1c0,-0.275 0.23438,-0.5 0.52083,-0.5l1.5625,0l0,0.5c0,0.275 -0.23438,0.5 -0.52083,0.5l-1.04167,0c-0.28646,0 -0.52083,-0.225 -0.52083,-0.5z" clip-rule="evenodd"/>
 </g>

</svg>